<svg id="svg" fill="#000000" stroke="#000000" width="40px" height="30px" version="1.1" viewBox="144 144 512 512" xmlns="http://www.w3.org/2000/svg">
    <g id="IconSvg_bgCarrier" stroke-width="0"></g>
    <g id="IconSvg_tracerCarrier" stroke-linecap="round" stroke-linejoin="round" stroke="#CCCCCC"></g>
     <g id="IconSvg_iconCarrier">
      <g xmlns="http://www.w3.org/2000/svg">
  <path d="m644.03 211.07c0-30.387-24.727-55.105-55.105-55.105-28.285 0-51.641 21.426-54.734 48.902-5.2031-1.0859-10.586-1.668-16.113-1.668-29 0-55.16 15.926-68.879 40.98-15.25-6.0625-31.82-9.4922-49.199-9.4922-17.383 0-33.945 3.4336-49.199 9.4922-13.73-25.066-39.891-40.98-68.883-40.98-5.5273 0-10.91 0.58203-16.113 1.668-3.0938-27.473-26.449-48.902-54.734-48.902-30.379 0-55.105 24.719-55.105 55.105 0 28.285 21.434 51.641 48.902 54.734-1.0859 5.2031-1.668 10.586-1.668 16.113 0 38.164 26.781 70.109 63.449 77.242-0.21484 3.1016-0.47266 6.1953-0.47266 9.3516 0 53.09 31.156 98.926 76.074 120.54-69.977 12.469-123.31 73.609-123.31 147.11 0 4.3438 3.5195 7.8711 7.8711 7.8711h346.37c4.3516 0 7.8711-3.5273 7.8711-7.8711 0-73.5-53.332-134.64-123.31-147.11 44.922-21.609 76.082-67.449 76.082-120.54 0-3.1562-0.26172-6.25-0.47266-9.3516 36.668-7.1328 63.449-39.078 63.449-77.242 0-5.5273-0.58203-10.91-1.668-16.113 27.465-3.0938 48.898-26.449 48.898-54.734zm-472.32 0c0-21.703 17.656-39.359 39.359-39.359 21.293 0 38.59 17.027 39.242 38.164-18.02 7.9336-32.496 22.418-40.43 40.43-21.145-0.64453-38.172-17.941-38.172-39.234zm47.23 70.848c0-34.723 28.254-62.977 62.977-62.977 22.82 0 43.469 12.312 54.602 31.797-34.793 18.828-60.277 52.641-67.902 92.707-28.773-6.1172-49.676-31.379-49.676-61.527zm48.68 346.37c3.2578-9.1406 11.918-15.742 22.168-15.742s18.91 6.6055 22.168 15.742zm118.08 0c3.2578-9.1406 11.918-15.742 22.168-15.742s18.91 6.6055 22.168 15.742zm45.785-125.95c71.148 0 129.5 55.812 133.6 125.95h-118.65c-3.6602-17.941-19.555-31.488-38.566-31.488-19.012 0-34.906 13.547-38.566 31.488h-40.949c-3.6602-17.941-19.555-31.488-38.566-31.488-19.012 0-34.906 13.547-38.566 31.488h-16.312c4.0938-70.141 62.449-125.95 133.6-125.95zm-31.488-15.746c-65.109 0-118.08-52.973-118.08-118.08 0-65.109 52.973-118.08 118.08-118.08s118.08 52.973 118.08 118.08c-0.003906 65.113-52.973 118.08-118.08 118.08zm131.38-143.14c-7.6289-40.07-33.117-73.887-67.902-92.707 11.121-19.484 31.77-31.797 54.598-31.797 34.723 0 62.977 28.254 62.977 62.977 0 30.148-20.898 55.41-49.672 61.527zm58.742-93.133c-7.9336-18.02-22.418-32.496-40.438-40.43 0.65234-21.145 17.945-38.172 39.238-38.172 21.703 0 39.359 17.656 39.359 39.359 0.003906 21.293-17.023 38.59-38.16 39.242z"></path>
  <path d="m392.12 329.15c0-26.047-17.656-47.23-39.359-47.23s-39.359 21.184-39.359 47.23c0 26.047 17.656 47.23 39.359 47.23 21.703 0.003906 39.359-21.18 39.359-47.23zm-62.977 0c0-17.367 10.598-31.488 23.617-31.488s23.617 14.121 23.617 31.488c0 17.367-10.598 31.488-23.617 31.488s-23.617-14.121-23.617-31.488z"></path>
  <path d="m447.23 281.92c-21.703 0-39.359 21.184-39.359 47.23 0 26.047 17.656 47.23 39.359 47.23s39.359-21.184 39.359-47.23c0-26.047-17.656-47.23-39.359-47.23zm0 78.719c-13.02 0-23.617-14.121-23.617-31.488 0-17.367 10.598-31.488 23.617-31.488s23.617 14.121 23.617 31.488c0 17.367-10.598 31.488-23.617 31.488z"></path>
  <path d="m368.51 407.87c0 17.367 14.121 31.488 31.488 31.488s31.488-14.121 31.488-31.488c0-17.367-14.121-31.488-31.488-31.488s-31.488 14.121-31.488 31.488zm31.488-15.746c8.6836 0 15.742 7.0625 15.742 15.742 0 8.6836-7.0625 15.742-15.742 15.742-8.6836 0-15.742-7.0625-15.742-15.742-0.003906-8.6797 7.0586-15.742 15.742-15.742z"></path>
  <path d="m407.87 455.1h-15.742c-21.703 0-39.359-17.656-39.359-39.359h-15.742c0 30.387 24.727 55.105 55.105 55.105h15.742c30.379 0 55.105-24.719 55.105-55.105h-15.742c-0.007812 21.703-17.664 39.359-39.367 39.359z"></path>
  <path d="m368.51 325.21c0-6.5117-5.2969-11.809-11.809-11.809s-11.809 5.2969-11.809 11.809c0 6.5117 5.2969 11.809 11.809 11.809 6.5078 0 11.809-5.3008 11.809-11.809zm-15.746 0c0-2.1719 1.7695-3.9375 3.9375-3.9375 2.1641 0 3.9375 1.7617 3.9375 3.9375-0.003906 2.1719-1.7734 3.9336-3.9375 3.9336s-3.9375-1.7617-3.9375-3.9336z"></path>
  <path d="m451.17 313.41c-6.5117 0-11.809 5.2969-11.809 11.809 0 6.5117 5.2969 11.809 11.809 11.809s11.809-5.2969 11.809-11.809c0-6.5117-5.3008-11.809-11.809-11.809zm0 15.742c-2.1641 0-3.9375-1.7617-3.9375-3.9375 0-2.1719 1.7695-3.9375 3.9375-3.9375 2.1641 0 3.9375 1.7617 3.9375 3.9375-0.003907 2.1758-1.7734 3.9375-3.9375 3.9375z"></path>
  <path d="m407.87 565.31c13.02 0 23.617-10.598 23.617-23.617 0-13.02-10.598-23.617-23.617-23.617-13.02 0-23.617 10.598-23.617 23.617 0 13.02 10.598 23.617 23.617 23.617zm0-31.488c4.3438 0 7.8711 3.5352 7.8711 7.8711 0 4.3359-3.5273 7.8711-7.8711 7.8711s-7.8711-3.5352-7.8711-7.8711c0-4.3359 3.5234-7.8711 7.8711-7.8711z"></path>
  <path d="m486.59 604.67c17.367 0 31.488-14.121 31.488-31.488 0-17.367-14.121-31.488-31.488-31.488-17.367 0-31.488 14.121-31.488 31.488 0 17.363 14.125 31.488 31.488 31.488zm0-47.234c8.6836 0 15.742 7.0625 15.742 15.742 0 8.6836-7.0625 15.742-15.742 15.742-8.6836 0-15.742-7.0625-15.742-15.742 0-8.6797 7.0586-15.742 15.742-15.742z"></path>
  <path d="m329.15 525.95c-17.367 0-31.488 14.121-31.488 31.488s14.121 31.488 31.488 31.488c17.367 0 31.488-14.121 31.488-31.488 0-17.363-14.121-31.488-31.488-31.488zm0 47.234c-8.6836 0-15.742-7.0625-15.742-15.742 0-8.6836 7.0625-15.742 15.742-15.742 8.6836 0 15.742 7.0625 15.742 15.742 0.003906 8.6797-7.0586 15.742-15.742 15.742z"></path>
  <path d="m234.69 281.92h15.742c0-17.367 14.121-31.488 31.488-31.488v-15.742c-26.047 0-47.23 21.184-47.23 47.23z"></path>
  <path d="m518.08 234.69v15.742c17.367 0 31.488 14.121 31.488 31.488h15.742c0.003906-26.047-21.18-47.23-47.23-47.23z"></path>
 </g>

      </g>
      </svg>